<svg xmlns="http://www.w3.org/2000/svg" viewBox="0 0 64 64">
  <rect width="64" height="64" rx="12" fill="#0A0C0E"/>
  <rect x="0" y="44" width="64" height="6" fill="none"/>
  <path d="M0 52h64v6a6 6 0 0 1-6 6H6a6 6 0 0 1-6-6z" fill="#0A0C0E"/>
  <g fill="none" stroke="#FFC53D" stroke-width="3.4" stroke-linecap="round" stroke-linejoin="round">
    <path d="M32 20a7 7 0 0 1 7 7v8a7 7 0 0 1-14 0v-8a7 7 0 0 1 7-7z"/>
    <path d="M32 20v26"/>
    <path d="M25 24h-7M39 24h7M24 32h-8M40 32h8M25 40h-6M39 40h6"/>
    <path d="M27 17l-3-4M37 17l3-4"/>
  </g>
  <rect x="10" y="10" width="12" height="4" rx="2" fill="#FFC53D"/>
  <rect x="10" y="10" width="4" height="12" rx="2" fill="#FFC53D"/>
</svg>
